<mxfile host="app.diagrams.net" agent="Mozilla/5.0 (Windows NT 10.0; Win64; x64) AppleWebKit/537.36 (KHTML, like Gecko) Chrome/130.0.0.0 Safari/537.36" version="24.8.6">
  <diagram name="Сторінка-1" id="RFtlDF4bYbTGAIMqezxM">
    <mxGraphModel grid="1" page="1" gridSize="10" guides="1" tooltips="1" connect="1" arrows="1" fold="1" pageScale="1" pageWidth="827" pageHeight="1169" math="0" shadow="0">
      <root>
        <mxCell id="0" />
        <mxCell id="1" parent="0" />
        <mxCell id="dWDayaJ4lCl4aVFRGpRh-4" value="" style="edgeStyle=orthogonalEdgeStyle;rounded=0;orthogonalLoop=1;jettySize=auto;html=1;" edge="1" parent="1" source="dWDayaJ4lCl4aVFRGpRh-1" target="dWDayaJ4lCl4aVFRGpRh-3">
          <mxGeometry relative="1" as="geometry" />
        </mxCell>
        <mxCell id="dWDayaJ4lCl4aVFRGpRh-1" value="&lt;font style=&quot;font-size: 18px;&quot;&gt;Start&lt;/font&gt;" style="ellipse;whiteSpace=wrap;html=1;" vertex="1" parent="1">
          <mxGeometry x="100" y="30" width="120" height="80" as="geometry" />
        </mxCell>
        <mxCell id="dWDayaJ4lCl4aVFRGpRh-6" value="" style="edgeStyle=orthogonalEdgeStyle;rounded=0;orthogonalLoop=1;jettySize=auto;html=1;" edge="1" parent="1" source="dWDayaJ4lCl4aVFRGpRh-3" target="dWDayaJ4lCl4aVFRGpRh-5">
          <mxGeometry relative="1" as="geometry" />
        </mxCell>
        <mxCell id="dWDayaJ4lCl4aVFRGpRh-3" value="Ініціалізація&amp;nbsp;n-ого члена та суми" style="rounded=0;whiteSpace=wrap;html=1;" vertex="1" parent="1">
          <mxGeometry x="100" y="150" width="120" height="60" as="geometry" />
        </mxCell>
        <mxCell id="dWDayaJ4lCl4aVFRGpRh-8" value="" style="edgeStyle=orthogonalEdgeStyle;rounded=0;orthogonalLoop=1;jettySize=auto;html=1;" edge="1" parent="1" source="dWDayaJ4lCl4aVFRGpRh-5" target="dWDayaJ4lCl4aVFRGpRh-7">
          <mxGeometry relative="1" as="geometry" />
        </mxCell>
        <mxCell id="dWDayaJ4lCl4aVFRGpRh-5" value="&lt;span style=&quot;font-size: 14px;&quot;&gt;i = 1, n&lt;/span&gt;" style="shape=hexagon;perimeter=hexagonPerimeter2;whiteSpace=wrap;html=1;fixedSize=1;" vertex="1" parent="1">
          <mxGeometry x="105" y="249.8" width="110" height="50.41" as="geometry" />
        </mxCell>
        <mxCell id="dWDayaJ4lCl4aVFRGpRh-10" value="" style="edgeStyle=orthogonalEdgeStyle;rounded=0;orthogonalLoop=1;jettySize=auto;html=1;" edge="1" parent="1" source="dWDayaJ4lCl4aVFRGpRh-7" target="dWDayaJ4lCl4aVFRGpRh-9">
          <mxGeometry relative="1" as="geometry" />
        </mxCell>
        <mxCell id="dWDayaJ4lCl4aVFRGpRh-7" value="&lt;font style=&quot;font-size: 14px;&quot;&gt;i == 1&lt;/font&gt;" style="rhombus;whiteSpace=wrap;html=1;" vertex="1" parent="1">
          <mxGeometry x="120" y="350" width="80" height="80" as="geometry" />
        </mxCell>
        <mxCell id="dWDayaJ4lCl4aVFRGpRh-14" value="" style="edgeStyle=orthogonalEdgeStyle;rounded=0;orthogonalLoop=1;jettySize=auto;html=1;" edge="1" parent="1" source="dWDayaJ4lCl4aVFRGpRh-9" target="dWDayaJ4lCl4aVFRGpRh-13">
          <mxGeometry relative="1" as="geometry" />
        </mxCell>
        <mxCell id="dWDayaJ4lCl4aVFRGpRh-9" value="Неможливо виконати &lt;br&gt;обрахунок" style="shape=parallelogram;perimeter=parallelogramPerimeter;whiteSpace=wrap;html=1;fixedSize=1;" vertex="1" parent="1">
          <mxGeometry x="270" y="360" width="120" height="60" as="geometry" />
        </mxCell>
        <mxCell id="dWDayaJ4lCl4aVFRGpRh-11" value="&lt;font style=&quot;font-size: 14px;&quot;&gt;YES&lt;/font&gt;" style="text;strokeColor=none;align=center;fillColor=none;html=1;verticalAlign=middle;whiteSpace=wrap;rounded=0;" vertex="1" parent="1">
          <mxGeometry x="200" y="360" width="60" height="30" as="geometry" />
        </mxCell>
        <mxCell id="dWDayaJ4lCl4aVFRGpRh-13" value="&lt;font style=&quot;font-size: 14px;&quot;&gt;countinue&lt;/font&gt;" style="rounded=0;whiteSpace=wrap;html=1;" vertex="1" parent="1">
          <mxGeometry x="440" y="365" width="100" height="50" as="geometry" />
        </mxCell>
        <mxCell id="dWDayaJ4lCl4aVFRGpRh-15" value="" style="endArrow=none;html=1;rounded=0;exitX=0.5;exitY=0;exitDx=0;exitDy=0;" edge="1" parent="1" source="dWDayaJ4lCl4aVFRGpRh-13">
          <mxGeometry width="50" height="50" relative="1" as="geometry">
            <mxPoint x="390" y="380" as="sourcePoint" />
            <mxPoint x="490" y="280" as="targetPoint" />
          </mxGeometry>
        </mxCell>
        <mxCell id="dWDayaJ4lCl4aVFRGpRh-16" value="" style="endArrow=classic;html=1;rounded=0;entryX=1;entryY=0.5;entryDx=0;entryDy=0;" edge="1" parent="1" target="dWDayaJ4lCl4aVFRGpRh-5">
          <mxGeometry width="50" height="50" relative="1" as="geometry">
            <mxPoint x="490" y="285" as="sourcePoint" />
            <mxPoint x="440" y="330" as="targetPoint" />
            <Array as="points">
              <mxPoint x="490" y="280" />
            </Array>
          </mxGeometry>
        </mxCell>
        <mxCell id="dWDayaJ4lCl4aVFRGpRh-17" value="" style="endArrow=none;html=1;rounded=0;entryX=0;entryY=0.5;entryDx=0;entryDy=0;" edge="1" parent="1" target="dWDayaJ4lCl4aVFRGpRh-7">
          <mxGeometry width="50" height="50" relative="1" as="geometry">
            <mxPoint x="60" y="390" as="sourcePoint" />
            <mxPoint x="110" y="390" as="targetPoint" />
          </mxGeometry>
        </mxCell>
        <mxCell id="dWDayaJ4lCl4aVFRGpRh-26" value="" style="edgeStyle=orthogonalEdgeStyle;rounded=0;orthogonalLoop=1;jettySize=auto;html=1;" edge="1" parent="1" source="dWDayaJ4lCl4aVFRGpRh-20" target="dWDayaJ4lCl4aVFRGpRh-21">
          <mxGeometry relative="1" as="geometry" />
        </mxCell>
        <mxCell id="dWDayaJ4lCl4aVFRGpRh-20" value="Виконання першої операції&lt;br&gt;&lt;div style=&quot;color: rgb(204, 204, 204); background-color: rgb(31, 31, 31); font-family: Consolas, &amp;quot;Courier New&amp;quot;, monospace; font-size: 14px; line-height: 19px; white-space: pre;&quot;&gt;&lt;span style=&quot;color: #dcdcaa;&quot;&gt;pow&lt;/span&gt;(&lt;span style=&quot;color: #9cdcfe;&quot;&gt;i&lt;/span&gt;, &lt;span style=&quot;color: #dcdcaa;&quot;&gt;log&lt;/span&gt;(&lt;span style=&quot;color: #9cdcfe;&quot;&gt;i&lt;/span&gt;));&lt;/div&gt;" style="rounded=0;whiteSpace=wrap;html=1;" vertex="1" parent="1">
          <mxGeometry x="20" y="530" width="120" height="60" as="geometry" />
        </mxCell>
        <mxCell id="dWDayaJ4lCl4aVFRGpRh-27" value="" style="edgeStyle=orthogonalEdgeStyle;rounded=0;orthogonalLoop=1;jettySize=auto;html=1;" edge="1" parent="1" source="dWDayaJ4lCl4aVFRGpRh-21" target="dWDayaJ4lCl4aVFRGpRh-23">
          <mxGeometry relative="1" as="geometry" />
        </mxCell>
        <mxCell id="dWDayaJ4lCl4aVFRGpRh-21" value="Виконання другої операції&lt;br&gt;&lt;div style=&quot;color: rgb(204, 204, 204); background-color: rgb(31, 31, 31); font-family: Consolas, &amp;quot;Courier New&amp;quot;, monospace; font-size: 14px; line-height: 19px; white-space: pre;&quot;&gt;&lt;span style=&quot;color: #dcdcaa;&quot;&gt;pow&lt;/span&gt;(&lt;span style=&quot;color: #dcdcaa;&quot;&gt;log&lt;/span&gt;(&lt;span style=&quot;color: #9cdcfe;&quot;&gt;i&lt;/span&gt;), &lt;span style=&quot;color: #9cdcfe;&quot;&gt;i&lt;/span&gt;);&lt;/div&gt;" style="rounded=0;whiteSpace=wrap;html=1;" vertex="1" parent="1">
          <mxGeometry x="20" y="620" width="120" height="60" as="geometry" />
        </mxCell>
        <mxCell id="dWDayaJ4lCl4aVFRGpRh-30" value="" style="edgeStyle=orthogonalEdgeStyle;rounded=0;orthogonalLoop=1;jettySize=auto;html=1;" edge="1" parent="1" source="dWDayaJ4lCl4aVFRGpRh-23">
          <mxGeometry relative="1" as="geometry">
            <mxPoint x="80" y="830" as="targetPoint" />
          </mxGeometry>
        </mxCell>
        <mxCell id="dWDayaJ4lCl4aVFRGpRh-23" value="Виконання третьої операції&lt;br&gt;&lt;div style=&quot;color: rgb(204, 204, 204); background-color: rgb(31, 31, 31); font-family: Consolas, &amp;quot;Courier New&amp;quot;, monospace; font-size: 14px; line-height: 19px; white-space: pre;&quot;&gt;&lt;span style=&quot;color: #9cdcfe;&quot;&gt;STEP1&lt;/span&gt; &lt;span style=&quot;color: #d4d4d4;&quot;&gt;/&lt;/span&gt; &lt;span style=&quot;color: #9cdcfe;&quot;&gt;STEP2&lt;/span&gt;;&lt;/div&gt;" style="rounded=0;whiteSpace=wrap;html=1;" vertex="1" parent="1">
          <mxGeometry x="20" y="720" width="120" height="60" as="geometry" />
        </mxCell>
        <mxCell id="dWDayaJ4lCl4aVFRGpRh-25" value="" style="endArrow=classic;html=1;rounded=0;" edge="1" parent="1">
          <mxGeometry width="50" height="50" relative="1" as="geometry">
            <mxPoint x="60" y="390" as="sourcePoint" />
            <mxPoint x="60" y="530" as="targetPoint" />
          </mxGeometry>
        </mxCell>
        <mxCell id="dWDayaJ4lCl4aVFRGpRh-28" value="&lt;font style=&quot;font-size: 14px;&quot;&gt;NO&lt;/font&gt;" style="text;strokeColor=none;align=center;fillColor=none;html=1;verticalAlign=middle;whiteSpace=wrap;rounded=0;" vertex="1" parent="1">
          <mxGeometry x="60" y="360" width="60" height="30" as="geometry" />
        </mxCell>
        <mxCell id="dWDayaJ4lCl4aVFRGpRh-31" value="&lt;font style=&quot;font-size: 14px;&quot;&gt;YES&lt;/font&gt;" style="text;strokeColor=none;align=center;fillColor=none;html=1;verticalAlign=middle;whiteSpace=wrap;rounded=0;" vertex="1" parent="1">
          <mxGeometry x="155" y="320" width="60" height="30" as="geometry" />
        </mxCell>
        <mxCell id="dWDayaJ4lCl4aVFRGpRh-34" value="" style="endArrow=none;html=1;rounded=0;exitX=1;exitY=0.5;exitDx=0;exitDy=0;" edge="1" parent="1" source="dWDayaJ4lCl4aVFRGpRh-46">
          <mxGeometry width="50" height="50" relative="1" as="geometry">
            <mxPoint x="150" y="860" as="sourcePoint" />
            <mxPoint x="640" y="970" as="targetPoint" />
          </mxGeometry>
        </mxCell>
        <mxCell id="dWDayaJ4lCl4aVFRGpRh-35" value="" style="endArrow=none;html=1;rounded=0;" edge="1" parent="1">
          <mxGeometry width="50" height="50" relative="1" as="geometry">
            <mxPoint x="640" y="970" as="sourcePoint" />
            <mxPoint x="640" y="280" as="targetPoint" />
          </mxGeometry>
        </mxCell>
        <mxCell id="dWDayaJ4lCl4aVFRGpRh-36" value="" style="endArrow=none;html=1;rounded=0;" edge="1" parent="1">
          <mxGeometry width="50" height="50" relative="1" as="geometry">
            <mxPoint x="640" y="280" as="sourcePoint" />
            <mxPoint x="490" y="280" as="targetPoint" />
          </mxGeometry>
        </mxCell>
        <mxCell id="dWDayaJ4lCl4aVFRGpRh-37" value="&lt;font style=&quot;font-size: 14px;&quot;&gt;NO&lt;/font&gt;" style="text;strokeColor=none;align=center;fillColor=none;html=1;verticalAlign=middle;whiteSpace=wrap;rounded=0;" vertex="1" parent="1">
          <mxGeometry x="60" y="249.8" width="60" height="30" as="geometry" />
        </mxCell>
        <mxCell id="dWDayaJ4lCl4aVFRGpRh-38" value="" style="endArrow=none;html=1;rounded=0;entryX=0;entryY=0.5;entryDx=0;entryDy=0;" edge="1" parent="1" target="dWDayaJ4lCl4aVFRGpRh-5">
          <mxGeometry width="50" height="50" relative="1" as="geometry">
            <mxPoint x="-80" y="280" as="sourcePoint" />
            <mxPoint x="230" y="310" as="targetPoint" />
          </mxGeometry>
        </mxCell>
        <mxCell id="dWDayaJ4lCl4aVFRGpRh-42" value="" style="edgeStyle=orthogonalEdgeStyle;rounded=0;orthogonalLoop=1;jettySize=auto;html=1;" edge="1" parent="1" source="dWDayaJ4lCl4aVFRGpRh-39" target="dWDayaJ4lCl4aVFRGpRh-41">
          <mxGeometry relative="1" as="geometry" />
        </mxCell>
        <mxCell id="dWDayaJ4lCl4aVFRGpRh-39" value="&lt;font style=&quot;font-size: 14px;&quot;&gt;Виведення кінцевої суми для всіх n членів&lt;/font&gt;" style="shape=parallelogram;perimeter=parallelogramPerimeter;whiteSpace=wrap;html=1;fixedSize=1;" vertex="1" parent="1">
          <mxGeometry x="-250" y="390" width="300" height="65" as="geometry" />
        </mxCell>
        <mxCell id="dWDayaJ4lCl4aVFRGpRh-40" value="" style="endArrow=classic;html=1;rounded=0;entryX=0.563;entryY=0.034;entryDx=0;entryDy=0;entryPerimeter=0;" edge="1" parent="1" target="dWDayaJ4lCl4aVFRGpRh-39">
          <mxGeometry width="50" height="50" relative="1" as="geometry">
            <mxPoint x="-80" y="280" as="sourcePoint" />
            <mxPoint x="400" y="390" as="targetPoint" />
          </mxGeometry>
        </mxCell>
        <mxCell id="dWDayaJ4lCl4aVFRGpRh-41" value="&lt;font style=&quot;font-size: 18px;&quot;&gt;End&lt;/font&gt;" style="ellipse;whiteSpace=wrap;html=1;" vertex="1" parent="1">
          <mxGeometry x="-160" y="530" width="120" height="80" as="geometry" />
        </mxCell>
        <mxCell id="dWDayaJ4lCl4aVFRGpRh-47" value="" style="edgeStyle=orthogonalEdgeStyle;rounded=0;orthogonalLoop=1;jettySize=auto;html=1;" edge="1" parent="1" source="dWDayaJ4lCl4aVFRGpRh-45" target="dWDayaJ4lCl4aVFRGpRh-46">
          <mxGeometry relative="1" as="geometry" />
        </mxCell>
        <mxCell id="dWDayaJ4lCl4aVFRGpRh-45" value="&lt;div style=&quot;color: rgb(204, 204, 204); background-color: rgb(31, 31, 31); font-family: Consolas, &amp;quot;Courier New&amp;quot;, monospace; font-size: 14px; line-height: 19px; white-space: pre;&quot;&gt;&amp;nbsp;&lt;span style=&quot;color: #9cdcfe;&quot;&gt;SUM&lt;/span&gt; &lt;span style=&quot;color: #d4d4d4;&quot;&gt;+=&lt;/span&gt; &lt;span style=&quot;color: #9cdcfe;&quot;&gt;STEP3&lt;/span&gt;;&lt;/div&gt;" style="rounded=0;whiteSpace=wrap;html=1;" vertex="1" parent="1">
          <mxGeometry x="20" y="830" width="120" height="60" as="geometry" />
        </mxCell>
        <mxCell id="dWDayaJ4lCl4aVFRGpRh-46" value="&lt;font style=&quot;font-size: 14px;&quot;&gt;Виведення суми при кожному члені n&lt;/font&gt;" style="shape=parallelogram;perimeter=parallelogramPerimeter;whiteSpace=wrap;html=1;fixedSize=1;" vertex="1" parent="1">
          <mxGeometry y="940" width="160" height="60" as="geometry" />
        </mxCell>
      </root>
    </mxGraphModel>
  </diagram>
</mxfile>
